<svg id="Layer_1" data-name="Layer 1" xmlns="http://www.w3.org/2000/svg" xmlns:xlink="http://www.w3.org/1999/xlink" viewBox="0 0 512 512"><defs><style>.cls-1,.cls-2{fill-rule:evenodd;}.cls-1{fill:url(#linear-gradient);}.cls-2{fill:url(#linear-gradient-2);}</style><linearGradient id="linear-gradient" x1="28.9" y1="97.83" x2="275.15" y2="344.08" gradientUnits="userSpaceOnUse"><stop offset="0" stop-color="#2ecc71"/><stop offset="0.31" stop-color="#2ac97a"/><stop offset="0.81" stop-color="#1fc091"/><stop offset="1" stop-color="#1abc9c"/></linearGradient><linearGradient id="linear-gradient-2" x1="95.63" y1="86.89" x2="427.44" y2="418.7" xlink:href="#linear-gradient"/></defs><title>petition-vc-icon</title><path class="cls-1" d="M138.44,441.79A234.58,234.58,0,0,1,66.72,125.88c-18.35-3.34-50.19-8.77-58.2-7.67,52.31-7.42,216.07-24.65,306.65,34,108.78,70.41,59.55,112,4.78,114.87s-98.25-40.13-172.8,11.75C103.2,309.4,118.49,384.93,138.44,441.79Z"/><path class="cls-2" d="M199.45,21.94C323.34-16,454.49,53.76,492.38,177.65s-31.83,255-155.72,292.94a233.67,233.67,0,0,1-163.57-9.82A394.28,394.28,0,0,0,165.86,502h0c-8.36-33.89-30.36-144.8,29.54-179.12,71-40.68,123.94,36,211.66,9.87S465.88,136.44,305.31,86.92C230.24,63.76,156.88,69.67,100,82.52A233.49,233.49,0,0,1,199.45,21.94Z"/></svg>