<svg id="Layer_1" data-name="Layer 1" xmlns="http://www.w3.org/2000/svg" viewBox="0 0 9.83 7.68"><defs><style>.cls-1{fill:#c4c4c4;}</style></defs><title>404-error</title><path class="cls-1" d="M0.85,2a0.14,0.14,0,1,0-.1,0,0.14,0.14,0,0,0,.1,0h0Zm0,0" transform="translate(-0.09 -1.06)"/><path class="cls-1" d="M1.31,2a0.14,0.14,0,1,0-.1,0,0.14,0.14,0,0,0,.1,0h0Zm0,0" transform="translate(-0.09 -1.06)"/><path class="cls-1" d="M1.78,2a0.14,0.14,0,1,0-.1,0,0.14,0.14,0,0,0,.1,0h0Zm0,0" transform="translate(-0.09 -1.06)"/><path class="cls-1" d="M2.39,2H8.24a0.14,0.14,0,1,0,0-.29H2.39a0.14,0.14,0,0,0,0,.29h0Zm0,0" transform="translate(-0.09 -1.06)"/><path class="cls-1" d="M8.86,2H9.17a0.14,0.14,0,0,0,0-.29H8.86a0.14,0.14,0,0,0,0,.29h0Zm0,0" transform="translate(-0.09 -1.06)"/><path class="cls-1" d="M5.16,4.29H4.85a0.61,0.61,0,0,0-.61.61V5.82a0.61,0.61,0,0,0,.61.61H5.16a0.61,0.61,0,0,0,.61-0.61V4.9a0.61,0.61,0,0,0-.61-0.61h0ZM5.48,5.82a0.32,0.32,0,0,1-.32.32H4.85a0.32,0.32,0,0,1-.32-0.32V4.9a0.32,0.32,0,0,1,.32-0.32H5.16a0.32,0.32,0,0,1,.32.32V5.82Zm0,0" transform="translate(-0.09 -1.06)"/><path class="cls-1" d="M3.93,5.68H3.77V4.44a0.14,0.14,0,1,0-.29,0V5.68H2.75l0.4-1.2a0.14,0.14,0,1,0-.27-0.09L2.41,5.78A0.14,0.14,0,0,0,2.55,6H3.48V6.29a0.14,0.14,0,1,0,.29,0V6H3.93a0.14,0.14,0,1,0,0-.29h0Zm0,0" transform="translate(-0.09 -1.06)"/><path class="cls-1" d="M7.47,5.68H7.31V4.44a0.14,0.14,0,1,0-.29,0V5.68H6.29l0.4-1.2a0.14,0.14,0,1,0-.27-0.09L5.95,5.78A0.14,0.14,0,0,0,6.09,6H7V6.29a0.14,0.14,0,1,0,.29,0V6H7.47a0.14,0.14,0,1,0,0-.29h0Zm0,0" transform="translate(-0.09 -1.06)"/><path class="cls-1" d="M9.17,1.06H0.85a0.76,0.76,0,0,0-.76.76V8a0.76,0.76,0,0,0,.76.76H9.17A0.76,0.76,0,0,0,9.93,8V1.82a0.76,0.76,0,0,0-.76-0.76h0Zm-8.31.29H9.17a0.47,0.47,0,0,1,.47.47V2.29H0.38V1.82A0.47,0.47,0,0,1,.85,1.35h0Zm8.31,7.1H0.85A0.47,0.47,0,0,1,.38,8V2.58H9.64V8a0.47,0.47,0,0,1-.47.47h0Zm0,0" transform="translate(-0.09 -1.06)"/></svg>