<svg id="Layer_1" data-name="Layer 1" xmlns="http://www.w3.org/2000/svg" viewBox="0 0 10 9.52"><defs><style>.cls-1{fill:#c4c4c4;}</style></defs><title>avatar-placeholder</title><path class="cls-1" d="M5,5.58A2.67,2.67,0,1,0,2.31,2.91,2.68,2.68,0,0,0,5,5.58H5ZM5,0.94a2,2,0,1,1-2,2,2,2,0,0,1,2-2H5Zm0,0" transform="translate(0 -0.24)"/><path class="cls-1" d="M0.35,9.76H9.65A0.35,0.35,0,0,0,10,9.41,3.36,3.36,0,0,0,6.64,6.05H3.36A3.36,3.36,0,0,0,0,9.41a0.35,0.35,0,0,0,.35.35h0Zm3-3H6.64a2.65,2.65,0,0,1,2.63,2.3H0.73a2.66,2.66,0,0,1,2.63-2.3h0Zm0,0" transform="translate(0 -0.24)"/></svg>