<svg id="Layer_1" data-name="Layer 1" xmlns="http://www.w3.org/2000/svg" viewBox="0 0 10 10"><defs><style>.cls-1{fill:#f1f1f1;}.cls-2{fill:#555;}</style></defs><title>avatar</title><rect class="cls-1" width="10" height="10"/><path class="cls-2" d="M5,5.31A1.41,1.41,0,1,0,3.58,3.9,1.41,1.41,0,0,0,5,5.31H5ZM5,2.86a1,1,0,1,1-1,1,1,1,0,0,1,1-1H5Zm0,0"/><path class="cls-2" d="M2.55,7.51H7.45a0.18,0.18,0,0,0,.19-0.19A1.77,1.77,0,0,0,5.86,5.55H4.14A1.77,1.77,0,0,0,2.37,7.32a0.18,0.18,0,0,0,.19.19h0ZM4.14,5.93H5.86A1.4,1.4,0,0,1,7.25,7.14H2.75A1.4,1.4,0,0,1,4.14,5.93h0Zm0,0"/></svg>