<svg xmlns="http://www.w3.org/2000/svg" xmlns:xlink="http://www.w3.org/1999/xlink" viewBox="0 0 288 288"><defs><style>.cls-1{isolation:isolate;}.cls-2{fill:url(#radial-gradient);}.cls-3{mix-blend-mode:color-burn;}.cls-4{fill:url(#radial-gradient-2);}.cls-5{fill:url(#radial-gradient-3);}.cls-6{fill:url(#radial-gradient-4);}.cls-7{fill:url(#radial-gradient-5);}.cls-8{fill:url(#radial-gradient-6);}.cls-9{fill:url(#radial-gradient-7);}.cls-10{fill:url(#radial-gradient-8);}.cls-11{fill:url(#radial-gradient-9);}.cls-12{fill:url(#radial-gradient-10);}</style><radialGradient id="radial-gradient" cx="155.45" cy="160.19" r="360.11" gradientUnits="userSpaceOnUse"><stop offset="0" stop-color="#363636"/><stop offset="0.52" stop-color="#1c1c1c"/><stop offset="0.99"/></radialGradient><radialGradient id="radial-gradient-2" cx="20.74" cy="-2015.72" r="174.62" gradientTransform="translate(-5982.14 130.05) rotate(90) scale(1.51 3.08)" gradientUnits="userSpaceOnUse"><stop offset="0" stop-color="#fff"/><stop offset="0.66" stop-color="#b0b0b0"/><stop offset="1" stop-color="#8c8c8c"/></radialGradient><radialGradient id="radial-gradient-3" cx="4.16" cy="-2050.48" r="171.18" xlink:href="#radial-gradient-2"/><radialGradient id="radial-gradient-4" cx="1.98" cy="-1955.49" r="459.68" xlink:href="#radial-gradient-2"/><radialGradient id="radial-gradient-5" cx="-23.6" cy="-1929.03" r="230.33" xlink:href="#radial-gradient-2"/><radialGradient id="radial-gradient-6" cx="107.22" cy="-1996.23" r="259.55" xlink:href="#radial-gradient-2"/><radialGradient id="radial-gradient-7" cx="36.68" cy="-2035.98" r="175.27" xlink:href="#radial-gradient-2"/><radialGradient id="radial-gradient-8" cx="176.87" cy="-2000.93" r="200.85" xlink:href="#radial-gradient-2"/><radialGradient id="radial-gradient-9" cx="-91.81" cy="-2020.03" r="178.21" xlink:href="#radial-gradient-2"/><radialGradient id="radial-gradient-10" cx="-21.41" cy="-2015.3" r="247.81" xlink:href="#radial-gradient-2"/></defs><title>cover</title><g class="cls-1"><g id="Design"><rect class="cls-2" width="288" height="288"/><g class="cls-3"><polygon class="cls-4" points="288 124.62 181.06 143.38 288 168.7 288 124.62"/><polygon class="cls-5" points="288 168.7 181.06 143.38 288 228.24 288 168.7"/><polygon class="cls-6" points="0 0 0 96.33 181.06 143.38 66.36 0 0 0"/><polygon class="cls-7" points="0 96.33 0 173.53 181.06 143.38 0 96.33"/><polygon class="cls-8" points="181.06 143.38 0 173.53 0 176.03 288 250.44 288 228.24 181.06 143.38"/><polygon class="cls-9" points="288 288 288 250.44 0 176.03 0 176.96 179.04 288 288 288"/><polygon class="cls-10" points="179.04 288 0 176.96 0 288 179.04 288"/><polygon class="cls-11" points="262.52 0 181.06 143.38 288 124.62 288 0 262.52 0"/><polygon class="cls-12" points="66.36 0 181.06 143.38 262.52 0 66.36 0"/></g></g></g></svg>