<svg id="Layer_1" data-name="Layer 1" xmlns="http://www.w3.org/2000/svg" xmlns:xlink="http://www.w3.org/1999/xlink" viewBox="0 0 300 225"><defs><style>.cls-1{fill:none;}.cls-2{fill:#ecf0f1;}.cls-3{clip-path:url(#clip-path);}.cls-4{fill:#c2c2c2;}</style><clipPath id="clip-path"><rect class="cls-1" x="87.75" y="62.67" width="124.51" height="99.66"/></clipPath></defs><title>thumbnail</title><rect class="cls-2" width="300" height="225"/><g class="cls-3"><path class="cls-4" d="M200.85,62.81h-80.6A11.23,11.23,0,0,0,109.06,74v3.92l-13,3.58a11,11,0,0,0-6.83,5.15,11.27,11.27,0,0,0-1.12,8.51L103.8,153.6a11,11,0,0,0,5.15,6.83,11.11,11.11,0,0,0,5.6,1.57,12.9,12.9,0,0,0,2.91-.34l51.27-13.77h32.13A11.23,11.23,0,0,0,212,136.69V74a11.23,11.23,0,0,0-11.19-11.19Zm-84.52,94.48a6.86,6.86,0,0,1-5.15-.67,6.54,6.54,0,0,1-3.13-4.14L92.38,94a6.85,6.85,0,0,1,.67-5.15,6.54,6.54,0,0,1,4.14-3.13l11.86-3.25v54.18a11.23,11.23,0,0,0,11.19,11.19h31.12Zm91.23-20.6a6.74,6.74,0,0,1-6.72,6.72h-80.6a6.74,6.74,0,0,1-6.72-6.72V74a6.74,6.74,0,0,1,6.72-6.72h80.6A6.74,6.74,0,0,1,207.57,74V105.8L196.93,95.16a4.33,4.33,0,0,0-6.27,0L165,120.69l-.11-.11-13-13a4.53,4.53,0,0,0-6.27,0l-11,11a2.22,2.22,0,0,0,3.13,3.13l11-11,13,13,.11.11-9.07,9.07a2.17,2.17,0,0,0,0,3.13,2.17,2.17,0,0,0,3.13,0L193.8,98.3l13.32,13.32c.11.11.34.22.45.34Zm0,0"/></g><path class="cls-4" d="M129.32,123.93l-2.24,2.24a2.16,2.16,0,0,0,0,3.13,2.16,2.16,0,0,0,3.13,0l2.24-2.24a2.22,2.22,0,0,0-3.13-3.13Zm0,0"/><path class="cls-4" d="M144.88,87.44a11.19,11.19,0,1,0-11.19,11.19,11.23,11.23,0,0,0,11.19-11.19Zm-11.19,6.72a6.72,6.72,0,1,1,6.72-6.72,6.74,6.74,0,0,1-6.72,6.72Zm0,0"/></svg>