<svg id="Layer_1" data-name="Layer 1" xmlns="http://www.w3.org/2000/svg" viewBox="0 0 689 140"><defs><style>.cls-1,.cls-2{fill:#fcfcfc;}.cls-1{fill-rule:evenodd;}</style></defs><title>petitionwp-white</title><path class="cls-1" d="M38.87,121.72A63,63,0,0,1,19.6,36.82C14.67,35.92,6.11,34.46,4,34.76,18,32.77,62,28.13,86.36,43.89c29.23,18.92,16,30.1,1.29,30.87S61.25,64,41.21,77.92C29.4,86.14,33.51,106.43,38.87,121.72Z"/><path class="cls-1" d="M55.27,8.89a63,63,0,1,1-7.08,117.93,106,106,0,0,0-1.94,11.08h0C44,128.78,38.08,99,54.18,89.75c19.08-10.93,33.31,9.67,56.88,2.65s15.81-52.75-27.34-66.06c-20.17-6.22-39.89-4.64-55.17-1.18A62.75,62.75,0,0,1,55.27,8.89Z"/><path class="cls-2" d="M153.93,108.19V28.73a3.69,3.69,0,0,1,1.38-2.88,5.21,5.21,0,0,1,3.54-1.2h23.41q12,0,19.15,6.36t7.14,20v1q0,13.69-7.38,20.11t-19.63,6.42H166.65v29.65a3.46,3.46,0,0,1-1.86,3.06,9.34,9.34,0,0,1-8.94,0A3.44,3.44,0,0,1,153.93,108.19Zm12.72-39.73h14.89q6.84,0,10.56-3.9t3.72-11.7V51.41q0-7.8-3.72-11.64t-10.56-3.84H166.65Z"/><path class="cls-2" d="M212.15,108.19V28.84a3.53,3.53,0,0,1,1.68-3.06,6.89,6.89,0,0,1,4-1.14h42.74a3.49,3.49,0,0,1,3.12,1.68,7,7,0,0,1,1.08,3.84,7.1,7.1,0,0,1-1.14,4.08,3.53,3.53,0,0,1-3.06,1.68H224.87V63.42h18.49a3.65,3.65,0,0,1,3.06,1.5,5.88,5.88,0,0,1,1.14,3.66A5.71,5.71,0,0,1,246.48,72a3.61,3.61,0,0,1-3.12,1.5H224.87v27.61h35.65a3.53,3.53,0,0,1,3.06,1.68,7.1,7.1,0,0,1,1.14,4.08,7,7,0,0,1-1.08,3.84,3.49,3.49,0,0,1-3.12,1.68H217.79a6.87,6.87,0,0,1-4-1.14A3.52,3.52,0,0,1,212.15,108.19Z"/><path class="cls-2" d="M259.48,30.47a7.6,7.6,0,0,1,1.08-4.06,3.45,3.45,0,0,1,3.12-1.76H313.5a3.48,3.48,0,0,1,3.12,1.7,7.3,7.3,0,0,1,1.08,4,7.76,7.76,0,0,1-1.14,4.31,3.5,3.5,0,0,1-3.06,1.76H295V108.2a3.44,3.44,0,0,1-1.92,3.06,8.54,8.54,0,0,1-4.44,1.14,8.45,8.45,0,0,1-4.5-1.14,3.45,3.45,0,0,1-1.86-3.06V36.41H263.69a3.49,3.49,0,0,1-3.06-1.76A7.51,7.51,0,0,1,259.48,30.47Z"/><path class="cls-2" d="M321.1,108.19V28.73A3.29,3.29,0,0,1,323,25.66a10.44,10.44,0,0,1,9,0,3.29,3.29,0,0,1,1.86,3.06v79.47a3.46,3.46,0,0,1-1.86,3.06,9.34,9.34,0,0,1-8.94,0A3.44,3.44,0,0,1,321.1,108.19Z"/><path class="cls-2" d="M338.23,30.47a7.6,7.6,0,0,1,1.08-4.06,3.45,3.45,0,0,1,3.12-1.76h49.82a3.48,3.48,0,0,1,3.12,1.7,7.3,7.3,0,0,1,1.08,4,7.75,7.75,0,0,1-1.14,4.31,3.5,3.5,0,0,1-3.06,1.76H373.76V108.2a3.44,3.44,0,0,1-1.92,3.06,8.54,8.54,0,0,1-4.44,1.14,8.45,8.45,0,0,1-4.5-1.14A3.45,3.45,0,0,1,361,108.2V36.41H342.43a3.49,3.49,0,0,1-3.06-1.76A7.51,7.51,0,0,1,338.23,30.47Z"/><path class="cls-2" d="M399.85,108.19V28.73a3.29,3.29,0,0,1,1.86-3.06,10.44,10.44,0,0,1,9,0,3.29,3.29,0,0,1,1.86,3.06v79.47a3.46,3.46,0,0,1-1.86,3.06,9.34,9.34,0,0,1-8.94,0A3.44,3.44,0,0,1,399.85,108.19Z"/><path class="cls-2" d="M418.38,86.35V51.41q0-13.8,7.32-20.29t19.57-6.48q12.24,0,19.63,6.48t7.38,20.29V86.35q0,13.81-7.38,20.29t-19.63,6.48q-12.24,0-19.57-6.48T418.38,86.35Zm12.72,0q0,15.49,14.17,15.49,6.84,0,10.56-3.84t3.72-11.64V51.41q0-7.8-3.72-11.64t-10.56-3.84q-14.17,0-14.17,15.49Z"/><path class="cls-2" d="M478,108.19V28.84q0-4.2,6.36-4.2a8.92,8.92,0,0,1,5.4,1.5,16.47,16.47,0,0,1,4.2,5.7l26.65,52V28.73a3.29,3.29,0,0,1,1.86-3.06,10.44,10.44,0,0,1,9,0,3.29,3.29,0,0,1,1.86,3.06v79.47a3.46,3.46,0,0,1-1.86,3.06,8.45,8.45,0,0,1-4.5,1.14,8.11,8.11,0,0,1-7.56-4.68L490.68,53.09v55.1a3.46,3.46,0,0,1-1.86,3.06,9.34,9.34,0,0,1-8.94,0A3.44,3.44,0,0,1,478,108.19Z"/><path class="cls-2" d="M545.7,27.16a2.21,2.21,0,0,1,.91-1.8,3.13,3.13,0,0,1,2-.72,2.27,2.27,0,0,1,2.45,2L572.3,102.5l12.33-45.83a2.88,2.88,0,0,1,3.15-2.25A3.13,3.13,0,0,1,591,57l12.6,45.5,21.12-76.26q.47-1.62,2.72-1.62a3.87,3.87,0,0,1,2.19.68,2,2,0,0,1,1,1.69,2.38,2.38,0,0,1-.12.79L607,110.74a3.21,3.21,0,0,1-3.45,2.38q-2.86,0-3.21-2L587.88,65.84l-12.33,44.9a2.73,2.73,0,0,1-2.94,2.37,2.68,2.68,0,0,1-2.94-2.18L545.82,28A2.66,2.66,0,0,1,545.7,27.16Z"/><path class="cls-2" d="M634.58,109.75V27.16q0-2.28,2.76-2.52h21.61q10.92,0,17.53,6.06t6.6,19v1.32q0,13-6.66,19.09t-17.59,6.12H640.58v33.49q0,2.64-3,2.64T634.58,109.75Zm6-39h18.25q8.76,0,13.5-4.86t4.74-14.71V49.85q0-9.72-4.74-14.59t-13.5-4.86H640.58Z"/></svg>